<svg id="Artwork" xmlns="http://www.w3.org/2000/svg" viewBox="0 0 280 62"><style>.st0{fill:#3cbe0a}</style><g id="Logo_2_"><path id="Wordmark" class="st0" d="M25.3 13.5v35.3h-9.7V13.5h9.7zM0 0h40.7v9.8H0V0zm51.1 12.5c-11.2 0-18.5 7.6-18.5 18.7 0 10.9 7.5 18.5 18.5 18.5s18.5-7.6 18.5-18.5c0-11.1-7.5-18.7-18.5-18.7zm0 28.3c-5.5 0-8.9-4.1-8.9-9.7 0-5.8 3.4-9.8 8.9-9.8 5.3 0 8.8 4.1 8.8 9.8s-3.5 9.7-8.8 9.7zm40.1-22.4V9.8h-5.7V.1h-9.7v9.7h-5.7v8.6h5.7V33c0 10.4 3.3 16.6 15.4 16.6V41c-4.3 0-5.7-2.3-5.7-6.7V18.4h5.7zm29.9-5.1v2c-2.8-1.8-6-2.9-9.9-2.9-9.8 0-17.4 8.3-17.4 18.7 0 10.3 7.6 18.5 17.4 18.5 3.9 0 7.1-1.1 9.9-2.9v2h9.7V13.5h-9.7v-.2zm0 23.4c-2.3 3.3-5.2 4.2-8.4 4.2-5.6 0-9.1-4.4-9.1-9.7 0-5.3 3.6-9.8 9.1-9.8 3.2 0 6.1.9 8.4 4.2v11.1zM146.6.1v48.7h-9.8V.1h9.8zM163 45.4c0 10.4-3.2 16.6-15.4 16.6v-8.6c4.2 0 5.7-2.3 5.7-6.7V13.5h9.7v31.9zm0-45.3h-9.7v9.7h9.7V.1zm22.7 12.4c-11.2 0-18.5 7.6-18.5 18.7 0 10.9 7.5 18.5 18.5 18.5 11.1 0 18.5-7.6 18.5-18.5.1-11.1-7.4-18.7-18.5-18.7zm0 28.3c-5.5 0-8.9-4.1-8.9-9.7 0-5.8 3.4-9.8 8.9-9.8 5.3 0 8.8 4.1 8.8 9.8s-3.4 9.7-8.8 9.7zM228 12.5c-3.9 0-7.1 1.1-9.9 2.9V.1h-9.7v48.7h9.7v-2c2.8 1.8 6 2.9 9.9 2.9 9.8 0 17.4-8.3 17.4-18.7 0-10.2-7.5-18.5-17.4-18.5zm-1.4 28.3c-3.2 0-6.1-.9-8.4-4.2V25.4c2.3-3.3 5.2-4.2 8.4-4.2 5.6 0 9.1 4.4 9.1 9.7.1 5.4-3.5 9.9-9.1 9.9zm38.3 1c3.7 0 6-1 6.1-2.9.1-1.5-.6-2.4-3.7-3l-7.1-1.4c-5.2-.9-10.4-3.7-10.4-10.4 0-6.2 5.8-11.7 14.9-11.7 6.4 0 14.1 2.2 15.4 11.9h-9c-.3-3.2-3-4.2-6.5-4.2-3.7 0-5.2 1.5-5.2 2.9s.8 2.9 4.1 3.4l6.1 1c5.5 1 10.5 3.4 10.5 10.3-.4 7.4-6.6 11.7-15.5 11.7-7.6 0-14.7-3.6-16-12.5h9c.9 3.8 3.5 4.9 7.3 4.9z"/></g></svg>